<svg width="16" height="16" viewBox="0 0 16 16" fill="none" xmlns="http://www.w3.org/2000/svg">
<path d="M14.0286 3.69561H8.96455C8.75898 3.69561 8.5582 3.6112 8.41955 3.46773L6.83946 1.80323C6.45964 1.42464 5.93999 1.22689 5.41368 1.22992H1.97137C0.884405 1.22989 0 2.1143 0 3.20123V12.7988C0 13.8858 0.884405 14.7702 1.97137 14.7702H14.0358H14.0377C15.124 14.7654 16.0048 13.8767 16 12.7928V5.66695C16 4.57998 15.1156 3.69561 14.0286 3.69561ZM14.7943 12.7952C14.7961 13.2172 14.4543 13.5626 14.0347 13.5645H1.97137C1.54937 13.5645 1.20575 13.2208 1.20575 12.7988V3.20123C1.20575 2.77923 1.54937 2.43561 1.97137 2.43498H5.42936C5.43599 2.43498 5.44261 2.43498 5.44927 2.43498C5.65061 2.43498 5.84596 2.51517 5.97736 2.64539L7.54902 4.30204C7.91795 4.68304 8.43402 4.90129 8.96455 4.90129H14.0286C14.4506 4.90129 14.7942 5.24492 14.7942 5.66691V12.7952H14.7943Z" fill="#4353FF"/>
</svg>
